<svg xmlns="http://www.w3.org/2000/svg" width="64" height="64" viewBox="0 0 64 64" shape-rendering="crispEdges">
  <rect x="40" y="6" width="8" height="1" fill="#102733"/>
  <rect x="38" y="7" width="3" height="1" fill="#102733"/>
  <rect x="41" y="7" width="6" height="1" fill="#e0ad50"/>
  <rect x="47" y="7" width="3" height="1" fill="#102733"/>
  <rect x="36" y="8" width="2" height="1" fill="#102733"/>
  <rect x="38" y="8" width="3" height="1" fill="#e0ad50"/>
  <rect x="41" y="8" width="6" height="1" fill="#9b622c"/>
  <rect x="47" y="8" width="3" height="1" fill="#e0ad50"/>
  <rect x="50" y="8" width="2" height="1" fill="#102733"/>
  <rect x="34" y="9" width="2" height="1" fill="#102733"/>
  <rect x="36" y="9" width="1" height="1" fill="#fff0a2"/>
  <rect x="37" y="9" width="1" height="1" fill="#102733"/>
  <rect x="38" y="9" width="3" height="1" fill="#9b622c"/>
  <rect x="41" y="9" width="6" height="1" fill="#79dce9"/>
  <rect x="47" y="9" width="3" height="1" fill="#9b622c"/>
  <rect x="50" y="9" width="1" height="1" fill="#e0ad50"/>
  <rect x="51" y="9" width="1" height="1" fill="#102733"/>
  <rect x="33" y="10" width="2" height="1" fill="#102733"/>
  <rect x="35" y="10" width="2" height="1" fill="#e0ad50"/>
  <rect x="37" y="10" width="2" height="1" fill="#102733"/>
  <rect x="39" y="10" width="4" height="1" fill="#79dce9"/>
  <rect x="43" y="10" width="2" height="1" fill="#102733"/>
  <rect x="45" y="10" width="4" height="1" fill="#79dce9"/>
  <rect x="49" y="10" width="2" height="1" fill="#9b622c"/>
  <rect x="33" y="11" width="1" height="1" fill="#102733"/>
  <rect x="34" y="11" width="1" height="1" fill="#e0ad50"/>
  <rect x="35" y="11" width="1" height="1" fill="#79dce9"/>
  <rect x="36" y="11" width="1" height="1" fill="#3c91c5"/>
  <rect x="37" y="11" width="1" height="1" fill="#e0ad50"/>
  <rect x="38" y="11" width="1" height="1" fill="#102733"/>
  <rect x="39" y="11" width="1" height="1" fill="#79dce9"/>
  <rect x="40" y="11" width="8" height="1" fill="#102733"/>
  <rect x="48" y="11" width="2" height="1" fill="#79dce9"/>
  <rect x="32" y="12" width="2" height="1" fill="#102733"/>
  <rect x="34" y="12" width="1" height="1" fill="#e0ad50"/>
  <rect x="35" y="12" width="3" height="1" fill="#3c91c5"/>
  <rect x="38" y="12" width="2" height="1" fill="#102733"/>
  <rect x="48" y="12" width="1" height="1" fill="#102733"/>
  <rect x="54" y="12" width="2" height="1" fill="#102733"/>
  <rect x="32" y="13" width="3" height="1" fill="#102733"/>
  <rect x="35" y="13" width="1" height="1" fill="#e0ad50"/>
  <rect x="36" y="13" width="3" height="1" fill="#3c91c5"/>
  <rect x="53" y="13" width="1" height="1" fill="#9b622c"/>
  <rect x="54" y="13" width="1" height="1" fill="#e0ad50"/>
  <rect x="55" y="13" width="1" height="1" fill="#102733"/>
  <rect x="31" y="14" width="1" height="1" fill="#102733"/>
  <rect x="32" y="14" width="1" height="1" fill="#e0ad50"/>
  <rect x="33" y="14" width="1" height="1" fill="#9b622c"/>
  <rect x="34" y="14" width="3" height="1" fill="#102733"/>
  <rect x="37" y="14" width="2" height="1" fill="#3c91c5"/>
  <rect x="39" y="14" width="1" height="1" fill="#79dce9"/>
  <rect x="52" y="14" width="1" height="1" fill="#ffd56f"/>
  <rect x="53" y="14" width="2" height="1" fill="#9b622c"/>
  <rect x="55" y="14" width="1" height="1" fill="#e0ad50"/>
  <rect x="56" y="14" width="1" height="1" fill="#102733"/>
  <rect x="31" y="15" width="1" height="1" fill="#102733"/>
  <rect x="32" y="15" width="1" height="1" fill="#e0ad50"/>
  <rect x="33" y="15" width="1" height="1" fill="#9b622c"/>
  <rect x="34" y="15" width="2" height="1" fill="#79dce9"/>
  <rect x="36" y="15" width="1" height="1" fill="#102733"/>
  <rect x="38" y="15" width="3" height="1" fill="#79dce9"/>
  <rect x="51" y="15" width="1" height="1" fill="#102733"/>
  <rect x="52" y="15" width="2" height="1" fill="#ffd56f"/>
  <rect x="54" y="15" width="1" height="1" fill="#9b622c"/>
  <rect x="55" y="15" width="1" height="1" fill="#e0ad50"/>
  <rect x="56" y="15" width="1" height="1" fill="#102733"/>
  <rect x="30" y="16" width="2" height="1" fill="#102733"/>
  <rect x="32" y="16" width="1" height="1" fill="#e0ad50"/>
  <rect x="33" y="16" width="1" height="1" fill="#9b622c"/>
  <rect x="34" y="16" width="1" height="1" fill="#79dce9"/>
  <rect x="35" y="16" width="1" height="1" fill="#102733"/>
  <rect x="39" y="16" width="1" height="1" fill="#79dce9"/>
  <rect x="52" y="16" width="1" height="1" fill="#102733"/>
  <rect x="53" y="16" width="1" height="1" fill="#ffd56f"/>
  <rect x="54" y="16" width="1" height="1" fill="#9b622c"/>
  <rect x="55" y="16" width="1" height="1" fill="#e0ad50"/>
  <rect x="56" y="16" width="2" height="1" fill="#102733"/>
  <rect x="30" y="17" width="1" height="1" fill="#102733"/>
  <rect x="31" y="17" width="1" height="1" fill="#e0ad50"/>
  <rect x="32" y="17" width="1" height="1" fill="#9b622c"/>
  <rect x="33" y="17" width="1" height="1" fill="#b9fff4"/>
  <rect x="34" y="17" width="1" height="1" fill="#79dce9"/>
  <rect x="35" y="17" width="1" height="1" fill="#102733"/>
  <rect x="52" y="17" width="1" height="1" fill="#102733"/>
  <rect x="53" y="17" width="2" height="1" fill="#ffd56f"/>
  <rect x="55" y="17" width="1" height="1" fill="#9b622c"/>
  <rect x="56" y="17" width="1" height="1" fill="#e0ad50"/>
  <rect x="57" y="17" width="1" height="1" fill="#102733"/>
  <rect x="30" y="18" width="1" height="1" fill="#102733"/>
  <rect x="31" y="18" width="1" height="1" fill="#e0ad50"/>
  <rect x="32" y="18" width="1" height="1" fill="#9b622c"/>
  <rect x="33" y="18" width="2" height="1" fill="#79dce9"/>
  <rect x="35" y="18" width="1" height="1" fill="#102733"/>
  <rect x="52" y="18" width="1" height="1" fill="#102733"/>
  <rect x="53" y="18" width="2" height="1" fill="#ffd56f"/>
  <rect x="55" y="18" width="1" height="1" fill="#9b622c"/>
  <rect x="56" y="18" width="1" height="1" fill="#e0ad50"/>
  <rect x="57" y="18" width="1" height="1" fill="#102733"/>
  <rect x="30" y="19" width="1" height="1" fill="#102733"/>
  <rect x="31" y="19" width="1" height="1" fill="#e0ad50"/>
  <rect x="32" y="19" width="1" height="1" fill="#9b622c"/>
  <rect x="33" y="19" width="1" height="1" fill="#79dce9"/>
  <rect x="34" y="19" width="2" height="1" fill="#102733"/>
  <rect x="52" y="19" width="2" height="1" fill="#102733"/>
  <rect x="54" y="19" width="1" height="1" fill="#ffd56f"/>
  <rect x="55" y="19" width="1" height="1" fill="#9b622c"/>
  <rect x="56" y="19" width="1" height="1" fill="#e0ad50"/>
  <rect x="57" y="19" width="1" height="1" fill="#102733"/>
  <rect x="30" y="20" width="1" height="1" fill="#102733"/>
  <rect x="31" y="20" width="1" height="1" fill="#e0ad50"/>
  <rect x="32" y="20" width="1" height="1" fill="#9b622c"/>
  <rect x="33" y="20" width="1" height="1" fill="#79dce9"/>
  <rect x="34" y="20" width="2" height="1" fill="#102733"/>
  <rect x="52" y="20" width="2" height="1" fill="#102733"/>
  <rect x="54" y="20" width="1" height="1" fill="#ffd56f"/>
  <rect x="55" y="20" width="1" height="1" fill="#9b622c"/>
  <rect x="56" y="20" width="1" height="1" fill="#e0ad50"/>
  <rect x="57" y="20" width="1" height="1" fill="#102733"/>
  <rect x="30" y="21" width="1" height="1" fill="#102733"/>
  <rect x="31" y="21" width="1" height="1" fill="#e0ad50"/>
  <rect x="32" y="21" width="1" height="1" fill="#9b622c"/>
  <rect x="33" y="21" width="2" height="1" fill="#79dce9"/>
  <rect x="35" y="21" width="1" height="1" fill="#102733"/>
  <rect x="52" y="21" width="1" height="1" fill="#102733"/>
  <rect x="53" y="21" width="2" height="1" fill="#ffd56f"/>
  <rect x="55" y="21" width="1" height="1" fill="#9b622c"/>
  <rect x="56" y="21" width="1" height="1" fill="#e0ad50"/>
  <rect x="57" y="21" width="1" height="1" fill="#102733"/>
  <rect x="30" y="22" width="1" height="1" fill="#102733"/>
  <rect x="31" y="22" width="1" height="1" fill="#e0ad50"/>
  <rect x="32" y="22" width="1" height="1" fill="#9b622c"/>
  <rect x="33" y="22" width="2" height="1" fill="#79dce9"/>
  <rect x="35" y="22" width="1" height="1" fill="#102733"/>
  <rect x="52" y="22" width="1" height="1" fill="#102733"/>
  <rect x="53" y="22" width="2" height="1" fill="#ffd56f"/>
  <rect x="55" y="22" width="1" height="1" fill="#9b622c"/>
  <rect x="56" y="22" width="1" height="1" fill="#e0ad50"/>
  <rect x="57" y="22" width="1" height="1" fill="#102733"/>
  <rect x="30" y="23" width="2" height="1" fill="#102733"/>
  <rect x="32" y="23" width="1" height="1" fill="#e0ad50"/>
  <rect x="33" y="23" width="1" height="1" fill="#9b622c"/>
  <rect x="34" y="23" width="1" height="1" fill="#79dce9"/>
  <rect x="35" y="23" width="1" height="1" fill="#102733"/>
  <rect x="48" y="23" width="1" height="1" fill="#ffd56f"/>
  <rect x="52" y="23" width="1" height="1" fill="#102733"/>
  <rect x="53" y="23" width="1" height="1" fill="#ffd56f"/>
  <rect x="54" y="23" width="1" height="1" fill="#9b622c"/>
  <rect x="55" y="23" width="1" height="1" fill="#e0ad50"/>
  <rect x="56" y="23" width="2" height="1" fill="#102733"/>
  <rect x="31" y="24" width="1" height="1" fill="#102733"/>
  <rect x="32" y="24" width="1" height="1" fill="#e0ad50"/>
  <rect x="33" y="24" width="1" height="1" fill="#9b622c"/>
  <rect x="34" y="24" width="2" height="1" fill="#79dce9"/>
  <rect x="36" y="24" width="1" height="1" fill="#102733"/>
  <rect x="47" y="24" width="3" height="1" fill="#ffd56f"/>
  <rect x="51" y="24" width="1" height="1" fill="#102733"/>
  <rect x="52" y="24" width="2" height="1" fill="#ffd56f"/>
  <rect x="54" y="24" width="1" height="1" fill="#9b622c"/>
  <rect x="55" y="24" width="1" height="1" fill="#e0ad50"/>
  <rect x="56" y="24" width="1" height="1" fill="#102733"/>
  <rect x="31" y="25" width="1" height="1" fill="#102733"/>
  <rect x="32" y="25" width="1" height="1" fill="#e0ad50"/>
  <rect x="33" y="25" width="2" height="1" fill="#9b622c"/>
  <rect x="35" y="25" width="1" height="1" fill="#79dce9"/>
  <rect x="48" y="25" width="1" height="1" fill="#ffd56f"/>
  <rect x="49" y="25" width="2" height="1" fill="#e89a36"/>
  <rect x="51" y="25" width="3" height="1" fill="#102733"/>
  <rect x="54" y="25" width="1" height="1" fill="#9b622c"/>
  <rect x="55" y="25" width="1" height="1" fill="#e0ad50"/>
  <rect x="56" y="25" width="1" height="1" fill="#102733"/>
  <rect x="32" y="26" width="1" height="1" fill="#102733"/>
  <rect x="33" y="26" width="1" height="1" fill="#e0ad50"/>
  <rect x="34" y="26" width="1" height="1" fill="#9b622c"/>
  <rect x="49" y="26" width="3" height="1" fill="#e89a36"/>
  <rect x="52" y="26" width="1" height="1" fill="#e0ad50"/>
  <rect x="53" y="26" width="3" height="1" fill="#102733"/>
  <rect x="32" y="27" width="2" height="1" fill="#102733"/>
  <rect x="34" y="27" width="1" height="1" fill="#9b622c"/>
  <rect x="35" y="27" width="1" height="1" fill="#102733"/>
  <rect x="39" y="27" width="1" height="1" fill="#102733"/>
  <rect x="48" y="27" width="2" height="1" fill="#102733"/>
  <rect x="50" y="27" width="3" height="1" fill="#e89a36"/>
  <rect x="53" y="27" width="1" height="1" fill="#e0ad50"/>
  <rect x="54" y="27" width="2" height="1" fill="#102733"/>
  <rect x="32" y="28" width="1" height="1" fill="#102733"/>
  <rect x="33" y="28" width="2" height="1" fill="#fff0a2"/>
  <rect x="35" y="28" width="1" height="1" fill="#9b622c"/>
  <rect x="36" y="28" width="1" height="1" fill="#102733"/>
  <rect x="38" y="28" width="2" height="1" fill="#ffd56f"/>
  <rect x="40" y="28" width="8" height="1" fill="#102733"/>
  <rect x="48" y="28" width="1" height="1" fill="#ffd56f"/>
  <rect x="49" y="28" width="1" height="1" fill="#102733"/>
  <rect x="50" y="28" width="1" height="1" fill="#e0ad50"/>
  <rect x="51" y="28" width="1" height="1" fill="#e89a36"/>
  <rect x="52" y="28" width="1" height="1" fill="#ffd56f"/>
  <rect x="53" y="28" width="1" height="1" fill="#e0ad50"/>
  <rect x="54" y="28" width="1" height="1" fill="#102733"/>
  <rect x="31" y="29" width="1" height="1" fill="#102733"/>
  <rect x="32" y="29" width="1" height="1" fill="#9b622c"/>
  <rect x="33" y="29" width="1" height="1" fill="#fff0a2"/>
  <rect x="34" y="29" width="5" height="1" fill="#9b622c"/>
  <rect x="39" y="29" width="4" height="1" fill="#ffd56f"/>
  <rect x="43" y="29" width="2" height="1" fill="#102733"/>
  <rect x="45" y="29" width="4" height="1" fill="#ffd56f"/>
  <rect x="49" y="29" width="2" height="1" fill="#102733"/>
  <rect x="51" y="29" width="2" height="1" fill="#e0ad50"/>
  <rect x="53" y="29" width="2" height="1" fill="#102733"/>
  <rect x="30" y="30" width="1" height="1" fill="#102733"/>
  <rect x="31" y="30" width="1" height="1" fill="#5c391d"/>
  <rect x="32" y="30" width="1" height="1" fill="#102733"/>
  <rect x="33" y="30" width="3" height="1" fill="#9b622c"/>
  <rect x="36" y="30" width="1" height="1" fill="#102733"/>
  <rect x="37" y="30" width="1" height="1" fill="#e0ad50"/>
  <rect x="38" y="30" width="3" height="1" fill="#9b622c"/>
  <rect x="41" y="30" width="6" height="1" fill="#ffd56f"/>
  <rect x="47" y="30" width="3" height="1" fill="#9b622c"/>
  <rect x="50" y="30" width="4" height="1" fill="#102733"/>
  <rect x="29" y="31" width="1" height="1" fill="#102733"/>
  <rect x="30" y="31" width="1" height="1" fill="#5c391d"/>
  <rect x="31" y="31" width="2" height="1" fill="#e0ad50"/>
  <rect x="33" y="31" width="1" height="1" fill="#102733"/>
  <rect x="34" y="31" width="1" height="1" fill="#9b622c"/>
  <rect x="35" y="31" width="3" height="1" fill="#102733"/>
  <rect x="38" y="31" width="3" height="1" fill="#e0ad50"/>
  <rect x="41" y="31" width="6" height="1" fill="#9b622c"/>
  <rect x="47" y="31" width="3" height="1" fill="#e0ad50"/>
  <rect x="50" y="31" width="2" height="1" fill="#102733"/>
  <rect x="28" y="32" width="1" height="1" fill="#102733"/>
  <rect x="29" y="32" width="1" height="1" fill="#5c391d"/>
  <rect x="30" y="32" width="3" height="1" fill="#e0ad50"/>
  <rect x="33" y="32" width="1" height="1" fill="#5c391d"/>
  <rect x="34" y="32" width="1" height="1" fill="#102733"/>
  <rect x="38" y="32" width="3" height="1" fill="#102733"/>
  <rect x="41" y="32" width="6" height="1" fill="#e0ad50"/>
  <rect x="47" y="32" width="3" height="1" fill="#102733"/>
  <rect x="27" y="33" width="1" height="1" fill="#102733"/>
  <rect x="28" y="33" width="1" height="1" fill="#5c391d"/>
  <rect x="29" y="33" width="3" height="1" fill="#e0ad50"/>
  <rect x="32" y="33" width="1" height="1" fill="#5c391d"/>
  <rect x="33" y="33" width="1" height="1" fill="#102733"/>
  <rect x="40" y="33" width="8" height="1" fill="#102733"/>
  <rect x="26" y="34" width="1" height="1" fill="#102733"/>
  <rect x="27" y="34" width="1" height="1" fill="#5c391d"/>
  <rect x="28" y="34" width="3" height="1" fill="#e0ad50"/>
  <rect x="31" y="34" width="1" height="1" fill="#5c391d"/>
  <rect x="32" y="34" width="1" height="1" fill="#102733"/>
  <rect x="25" y="35" width="1" height="1" fill="#102733"/>
  <rect x="26" y="35" width="1" height="1" fill="#5c391d"/>
  <rect x="27" y="35" width="3" height="1" fill="#e0ad50"/>
  <rect x="30" y="35" width="1" height="1" fill="#5c391d"/>
  <rect x="31" y="35" width="1" height="1" fill="#102733"/>
  <rect x="24" y="36" width="1" height="1" fill="#102733"/>
  <rect x="25" y="36" width="1" height="1" fill="#5c391d"/>
  <rect x="26" y="36" width="3" height="1" fill="#e0ad50"/>
  <rect x="29" y="36" width="1" height="1" fill="#5c391d"/>
  <rect x="30" y="36" width="1" height="1" fill="#102733"/>
  <rect x="23" y="37" width="1" height="1" fill="#102733"/>
  <rect x="24" y="37" width="1" height="1" fill="#5c391d"/>
  <rect x="25" y="37" width="3" height="1" fill="#e0ad50"/>
  <rect x="28" y="37" width="1" height="1" fill="#5c391d"/>
  <rect x="29" y="37" width="1" height="1" fill="#102733"/>
  <rect x="22" y="38" width="1" height="1" fill="#102733"/>
  <rect x="23" y="38" width="1" height="1" fill="#5c391d"/>
  <rect x="24" y="38" width="3" height="1" fill="#e0ad50"/>
  <rect x="27" y="38" width="1" height="1" fill="#5c391d"/>
  <rect x="28" y="38" width="1" height="1" fill="#102733"/>
  <rect x="21" y="39" width="1" height="1" fill="#102733"/>
  <rect x="22" y="39" width="1" height="1" fill="#5c391d"/>
  <rect x="23" y="39" width="3" height="1" fill="#e0ad50"/>
  <rect x="26" y="39" width="1" height="1" fill="#5c391d"/>
  <rect x="27" y="39" width="1" height="1" fill="#102733"/>
  <rect x="20" y="40" width="1" height="1" fill="#102733"/>
  <rect x="21" y="40" width="1" height="1" fill="#5c391d"/>
  <rect x="22" y="40" width="3" height="1" fill="#e0ad50"/>
  <rect x="25" y="40" width="1" height="1" fill="#5c391d"/>
  <rect x="26" y="40" width="1" height="1" fill="#102733"/>
  <rect x="19" y="41" width="1" height="1" fill="#102733"/>
  <rect x="20" y="41" width="1" height="1" fill="#5c391d"/>
  <rect x="21" y="41" width="3" height="1" fill="#e0ad50"/>
  <rect x="24" y="41" width="1" height="1" fill="#5c391d"/>
  <rect x="25" y="41" width="1" height="1" fill="#102733"/>
  <rect x="18" y="42" width="1" height="1" fill="#102733"/>
  <rect x="19" y="42" width="1" height="1" fill="#172849"/>
  <rect x="20" y="42" width="3" height="1" fill="#e0ad50"/>
  <rect x="23" y="42" width="1" height="1" fill="#5c391d"/>
  <rect x="24" y="42" width="1" height="1" fill="#102733"/>
  <rect x="17" y="43" width="1" height="1" fill="#172849"/>
  <rect x="18" y="43" width="1" height="1" fill="#fff0a2"/>
  <rect x="19" y="43" width="2" height="1" fill="#172849"/>
  <rect x="21" y="43" width="1" height="1" fill="#e0ad50"/>
  <rect x="22" y="43" width="1" height="1" fill="#5c391d"/>
  <rect x="23" y="43" width="1" height="1" fill="#102733"/>
  <rect x="16" y="44" width="1" height="1" fill="#224f7a"/>
  <rect x="17" y="44" width="5" height="1" fill="#172849"/>
  <rect x="22" y="44" width="1" height="1" fill="#102733"/>
  <rect x="15" y="45" width="1" height="1" fill="#172849"/>
  <rect x="16" y="45" width="2" height="1" fill="#224f7a"/>
  <rect x="18" y="45" width="3" height="1" fill="#172849"/>
  <rect x="21" y="45" width="1" height="1" fill="#102733"/>
  <rect x="14" y="46" width="1" height="1" fill="#224f7a"/>
  <rect x="15" y="46" width="2" height="1" fill="#172849"/>
  <rect x="17" y="46" width="2" height="1" fill="#224f7a"/>
  <rect x="19" y="46" width="2" height="1" fill="#172849"/>
  <rect x="13" y="47" width="2" height="1" fill="#172849"/>
  <rect x="15" y="47" width="1" height="1" fill="#224f7a"/>
  <rect x="16" y="47" width="2" height="1" fill="#172849"/>
  <rect x="18" y="47" width="2" height="1" fill="#224f7a"/>
  <rect x="12" y="48" width="2" height="1" fill="#224f7a"/>
  <rect x="14" y="48" width="2" height="1" fill="#172849"/>
  <rect x="16" y="48" width="1" height="1" fill="#224f7a"/>
  <rect x="17" y="48" width="2" height="1" fill="#172849"/>
  <rect x="11" y="49" width="2" height="1" fill="#172849"/>
  <rect x="13" y="49" width="2" height="1" fill="#224f7a"/>
  <rect x="15" y="49" width="2" height="1" fill="#172849"/>
  <rect x="17" y="49" width="1" height="1" fill="#224f7a"/>
  <rect x="10" y="50" width="1" height="1" fill="#172849"/>
  <rect x="11" y="50" width="1" height="1" fill="#224f7a"/>
  <rect x="12" y="50" width="2" height="1" fill="#172849"/>
  <rect x="14" y="50" width="2" height="1" fill="#224f7a"/>
  <rect x="16" y="50" width="1" height="1" fill="#172849"/>
  <rect x="9" y="51" width="1" height="1" fill="#224f7a"/>
  <rect x="10" y="51" width="2" height="1" fill="#172849"/>
  <rect x="12" y="51" width="1" height="1" fill="#224f7a"/>
  <rect x="13" y="51" width="2" height="1" fill="#172849"/>
  <rect x="15" y="51" width="1" height="1" fill="#224f7a"/>
  <rect x="8" y="52" width="1" height="1" fill="#172849"/>
  <rect x="9" y="52" width="2" height="1" fill="#224f7a"/>
  <rect x="11" y="52" width="2" height="1" fill="#172849"/>
  <rect x="13" y="52" width="1" height="1" fill="#224f7a"/>
  <rect x="14" y="52" width="1" height="1" fill="#172849"/>
  <rect x="7" y="53" width="1" height="1" fill="#224f7a"/>
  <rect x="8" y="53" width="2" height="1" fill="#172849"/>
  <rect x="10" y="53" width="2" height="1" fill="#224f7a"/>
  <rect x="12" y="53" width="2" height="1" fill="#172849"/>
  <rect x="6" y="54" width="2" height="1" fill="#172849"/>
  <rect x="8" y="54" width="1" height="1" fill="#224f7a"/>
  <rect x="9" y="54" width="2" height="1" fill="#172849"/>
  <rect x="11" y="54" width="2" height="1" fill="#224f7a"/>
  <rect x="5" y="55" width="1" height="1" fill="#172849"/>
  <rect x="6" y="55" width="1" height="1" fill="#102733"/>
  <rect x="7" y="55" width="2" height="1" fill="#172849"/>
  <rect x="9" y="55" width="1" height="1" fill="#224f7a"/>
  <rect x="10" y="55" width="2" height="1" fill="#172849"/>
  <rect x="5" y="56" width="1" height="1" fill="#102733"/>
  <rect x="6" y="56" width="1" height="1" fill="#e0ad50"/>
  <rect x="7" y="56" width="1" height="1" fill="#102733"/>
  <rect x="8" y="56" width="2" height="1" fill="#172849"/>
  <rect x="10" y="56" width="1" height="1" fill="#224f7a"/>
  <rect x="4" y="57" width="1" height="1" fill="#102733"/>
  <rect x="5" y="57" width="3" height="1" fill="#e0ad50"/>
  <rect x="8" y="57" width="1" height="1" fill="#102733"/>
  <rect x="9" y="57" width="1" height="1" fill="#172849"/>
  <rect x="4" y="58" width="1" height="1" fill="#102733"/>
  <rect x="5" y="58" width="2" height="1" fill="#e0ad50"/>
  <rect x="7" y="58" width="1" height="1" fill="#102733"/>
  <rect x="8" y="58" width="1" height="1" fill="#172849"/>
  <rect x="5" y="59" width="2" height="1" fill="#102733"/>
</svg>
